# xmcd CD database file
#
# Track frame offsets:
#	150
#	10887
#	23662
#	25737
#	35652
#	51957
#	59900
#	67170
#	78075
#	89900
#	102692
#	108690
#	126752
#	136367
#	148802
#	166477
#	167565
#	170342
#	172602
#	184327
#	199747
#	214127
#	229855
#	245337
#
# Disc length: 3571 seconds
#
# Revision: 5
# Processed by: cddbd v1.5.2PL0 Copyright (c) Steve Scherf et al.
# Submitted via: CDex 1.70beta2
#
DISCID=610df118
DTITLE=Various Artist - Sjömansvisor and rallarvisor
DYEAR=1966
DGENRE=Sjømansvise/Shanty
TTITLE0=Axel Käck - Jag som så mången andra på havet segla må
TTITLE1=Herman J Ahlstedt - Sex år det har förflutit sen vi skådade vårt land
TTITLE2=John Bernhard Hedberg - Yankee ship came down the river
TTITLE3=Gösta Jöngren - There was once a shipper
TTITLE4=Erik Andersson - Det gingo tre flickor planterande kål
TTITLE5=Erik Andersson - Adjö farväl för sista gång
TTITLE6=Judit Pettersson - Min man han var en sjöman
TTITLE7=Thore Andersson - Och Georg Sjöman tar ömt ifamnen
TTITLE8=Martin Martinsson - Kom gossar ska ni få höra
TTITLE9=Märta Boström och Inger Ploog - Jag är en skärgårdsflicka
TTITLE10=Lena Larsson - Spel upp I musikanter, för sjömansgossar raskt det går
TTITLE11=Axel Karlsson - På sjöstranden där hissades ett ankare
TTITLE12=Hilmer Sundberg - En rallare, en rallare från södra Sverige kom (Skön Cecilia)
TTITLE13=Alexander Mattson - Vi reste ifrån Virbo (Ofotenvisan)
TTITLE14=Olof Hager - Uti en mörk och dyster kväll (Visa från Riksgränsbanan)
TTITLE15=Arthur Bengtsson - Hå nu klämmer vi å hej (Baxarvisa)
TTITLE16=Karl Emil Johansson - Hå bax, hej bax  (Baxarvisa) .. Tänt va de här...
TTITLE17=Salomon Näström - Här går ettan (Pålarvisa)
TTITLE18=Salomon Näström - I Gällivara trakter (Gällivaravisan)
TTITLE19=Karl Jernberg - En visa vill jag sjunga om en olycka svår (En rallares begravning)
TTITLE20=Victor Nilsson - Kamrat, kommer an
TTITLE21=Alexi Strandberg - Jag är födder i en hydda invid Lannevaara fjäll
TTITLE22=Otto Åström - Upp kamater alla
TTITLE23=Carl Kranz - Längs Ångermanälven
EXTD=24 dec 97\nCaprice Records\n$0.00\nPappa\nAnteckningarna är i fel ordning YEAR: 1966
EXTT0=
EXTT1=
EXTT2=
EXTT3=
EXTT4=
EXTT5=
EXTT6=
EXTT7=
EXTT8=
EXTT9=
EXTT10=
EXTT11=
EXTT12=
EXTT13=
EXTT14=
EXTT15=
EXTT16=
EXTT17=
EXTT18=
EXTT19=
EXTT20=
EXTT21=
EXTT22=
EXTT23=
PLAYORDER=
